<svg xmlns="http://www.w3.org/2000/svg" width="32" height="32">
    <path style="stroke:none;fill-rule:nonzero;fill:#130F26;" d="M25.602 32c-2.836 0-5.848-.805-8.961-2.387-2.871-1.46-5.703-3.55-8.196-6.047-2.492-2.496-4.582-5.336-6.039-8.203C.824 12.246.02 9.234.02 6.398c0-1.835 1.714-3.609 2.449-4.285C3.523 1.137 5.188 0 6.399 0 7 0 7.702.395 8.616 1.238c.68.63 1.445 1.485 2.215 2.469.461.598 2.766 3.637 2.766 5.094 0 1.195-1.352 2.027-2.782 2.906-.554.336-1.125.691-1.539 1.02-.441.355-.52.543-.53.582 1.519 3.789 6.16 8.43 9.944 9.945.032-.012.22-.086.579-.531.332-.414.683-.989 1.023-1.54.879-1.43 1.71-2.78 2.906-2.78 1.457 0 4.496 2.304 5.09 2.765.984.77 1.84 1.535 2.473 2.215C31.605 24.293 32 25 32 25.602c0 1.21-1.14 2.878-2.113 3.941-.676.738-2.453 2.457-4.29 2.457ZM6.39 1.602c-.43.007-1.582.53-2.836 1.687C2.363 4.387 1.62 5.58 1.62 6.4c0 10.769 13.223 24 23.98 24 .82 0 2.012-.743 3.11-1.938 1.156-1.262 1.68-2.422 1.687-2.852-.05-.304-.89-1.484-3.195-3.257-1.976-1.524-3.582-2.344-3.996-2.352-.027.008-.207.078-.57.54-.317.398-.653.948-.98 1.48-.895 1.457-1.743 2.835-2.973 2.835-.2 0-.395-.039-.582-.113-4.2-1.68-9.165-6.648-10.844-10.847-.203-.504-.235-1.293.758-2.196.527-.476 1.257-.926 1.964-1.36.532-.327 1.082-.663 1.48-.98.462-.363.532-.543.54-.57-.012-.414-.828-2.02-2.352-4-1.773-2.3-2.957-3.14-3.257-3.195Zm0 0"/>
</svg>
