<svg xmlns="http://www.w3.org/2000/svg" width="32" height="32">
    <path style="stroke:none;fill-rule:nonzero;fill:#000;fill-opacity:1" d="M16.055 2.668c-7.282 0-13.215 5.934-13.215 13.21 0 2.337.613 4.602 1.762 6.602l-1.868 6.852 7-1.84a13.199 13.199 0 0 0 6.32 1.613c7.278 0 13.212-5.933 13.212-13.21 0-3.536-1.371-6.856-3.868-9.348a13.077 13.077 0 0 0-9.343-3.879m.011 2.227c2.934 0 5.68 1.144 7.762 3.226a10.962 10.962 0 0 1 3.211 7.774c0 6.05-4.934 10.972-10.984 10.972-1.977 0-3.907-.52-5.59-1.535l-.399-.227-4.16 1.094 1.106-4.05-.266-.43a10.904 10.904 0 0 1-1.68-5.84c.012-6.05 4.934-10.984 11-10.984m-4.691 4.878c-.215 0-.574.079-.883.415-.293.332-1.16 1.144-1.16 2.757 0 1.63 1.188 3.188 1.336 3.414.184.227 2.344 3.563 5.664 4.973.79.36 1.402.563 1.883.707.785.254 1.504.215 2.078.133.64-.094 1.945-.797 2.227-1.57.28-.774.28-1.43.199-1.575-.094-.132-.305-.215-.64-.359-.333-.188-1.958-.988-2.25-1.094-.31-.11-.497-.16-.75.16-.212.332-.852 1.078-1.04 1.293-.2.227-.387.254-.707.094-.344-.176-1.41-.52-2.664-1.64-.988-.88-1.64-1.961-1.84-2.294-.16-.32-.015-.519.145-.667.148-.145.359-.387.492-.586.176-.188.226-.332.336-.547.105-.227.05-.414-.028-.575-.082-.144-.746-1.8-1.027-2.453-.266-.64-.531-.558-.746-.574-.188 0-.398-.012-.625-.012Zm0 0"/>
</svg>
