<?xml version="1.0" standalone="no"?>
<!DOCTYPE svg PUBLIC "-//W3C//DTD SVG 20010904//EN"
 "http://www.w3.org/TR/2001/REC-SVG-20010904/DTD/svg10.dtd">
<svg version="1.0" xmlns="http://www.w3.org/2000/svg"
 width="208.000000pt" height="48.000000pt" viewBox="0 0 208.000000 48.000000"
 preserveAspectRatio="xMidYMid meet">
<metadata>
Created by potrace 1.16, written by Peter Selinger 2001-2019
</metadata>
<g transform="translate(0.000000,48.000000) scale(0.100000,-0.100000)"
fill="#000000" stroke="none">
<path d="M30 330 l0 -30 69 0 c76 0 104 -16 84 -48 -7 -13 -28 -18 -82 -20
l-71 -3 0 -94 0 -95 30 0 30 0 0 65 0 65 43 0 c87 0 139 67 105 136 -19 40
-53 54 -135 54 l-73 0 0 -30z"/>
<path d="M340 342 c-41 -22 -80 -90 -80 -141 0 -19 9 -54 21 -78 67 -138 272
-92 286 64 12 126 -116 213 -227 155z m141 -68 c19 -20 24 -37 24 -74 0 -66
-31 -100 -90 -100 -59 0 -90 34 -90 100 0 66 31 100 90 100 32 0 47 -6 66 -26z"/>
<path d="M590 295 l0 -65 30 0 c28 0 30 3 30 35 0 32 2 35 29 35 17 0 42 -10
58 -24 24 -21 28 -32 28 -75 0 -60 -23 -89 -78 -98 -37 -6 -37 -6 -37 31 0 33
-2 36 -30 36 l-30 0 0 -66 0 -67 69 5 c82 6 126 29 152 80 62 120 -19 238
-163 238 l-58 0 0 -65z"/>
<path d="M889 345 c-32 -17 -53 -65 -44 -97 11 -35 44 -66 79 -74 17 -3 37
-11 44 -16 19 -16 14 -49 -8 -55 -14 -4 -20 -14 -20 -34 0 -39 32 -39 71 0 56
57 28 142 -53 158 -48 10 -68 33 -49 57 17 20 60 21 67 1 4 -9 19 -15 35 -15
38 0 38 23 0 61 -33 33 -78 38 -122 14z"/>
<path d="M1240 260 l0 -100 -95 0 -95 0 0 -60 0 -60 30 0 c27 0 30 3 30 30 l0
30 65 0 65 0 0 -30 c0 -27 3 -30 30 -30 l30 0 0 160 0 160 -30 0 -30 0 0 -100z"/>
<path d="M1421 339 c-77 -202 -111 -292 -111 -295 0 -3 14 -4 32 -2 30 3 33 7
57 80 14 42 29 79 32 83 3 3 20 -32 36 -77 29 -79 32 -83 63 -86 24 -3 31 0
27 10 -2 7 -30 78 -61 158 -31 79 -59 146 -61 148 -3 3 -9 -6 -14 -19z"/>
<path d="M1652 339 c-64 -32 -94 -107 -73 -185 20 -73 87 -114 187 -114 53 0
54 0 54 30 0 30 -1 30 -55 30 -74 0 -111 20 -124 66 -20 72 22 133 92 134 24
0 27 -3 27 -35 0 -32 2 -35 30 -35 l30 0 0 65 0 65 -62 0 c-44 0 -76 -6 -106
-21z"/>
<path d="M1830 213 l0 -147 45 44 c24 24 46 42 48 39 2 -2 22 -28 46 -56 36
-45 48 -53 77 -53 19 0 34 3 34 6 0 3 -27 39 -61 79 l-61 74 61 75 c34 41 61
77 61 80 0 3 -15 6 -34 6 -30 0 -41 -8 -92 -72 l-59 -71 -3 71 -3 72 -29 0
-30 0 0 -147z"/>
</g>
</svg>
